<?xml version="1.0" encoding="UTF-8" standalone="no"?>
<!DOCTYPE svg PUBLIC "-//W3C//DTD SVG 1.1//EN" "http://www.w3.org/Graphics/SVG/1.1/DTD/svg11.dtd">
<!-- Generated by graphviz version 2.40.1 (20161225.0304)
 -->
<!-- Title: Tree Pages: 1 -->
<svg width="334pt" height="289pt" viewBox="0.00 0.00 333.54 288.80" xmlns="http://www.w3.org/2000/svg" xmlns:xlink="http://www.w3.org/1999/xlink">
<g id="graph0" class="graph" transform="scale(1 1) rotate(0) translate(4 284.8)">
<title>Tree</title>
<polygon fill="#ffffff" stroke="transparent" points="-4,4 -4,-284.8 329.5356,-284.8 329.5356,4 -4,4"/>
<!-- 0 -->
<g id="node1" class="node">
<title>0</title>
<polygon fill="none" stroke="#000000" points="205.9351,-280.9003 54.6005,-280.9003 54.6005,-205.4997 205.9351,-205.4997 205.9351,-280.9003"/>
<text text-anchor="middle" x="130.2678" y="-264.2" font-family="Times,serif" font-size="14.00" fill="#000000">PetalLengthCm &lt;= 2.45</text>
<text text-anchor="middle" x="130.2678" y="-247.4" font-family="Times,serif" font-size="14.00" fill="#000000">gini = 0.667</text>
<text text-anchor="middle" x="130.2678" y="-230.6" font-family="Times,serif" font-size="14.00" fill="#000000">samples = 150</text>
<text text-anchor="middle" x="130.2678" y="-213.8" font-family="Times,serif" font-size="14.00" fill="#000000">value = [50, 50, 50]</text>
</g>
<!-- 1 -->
<g id="node2" class="node">
<title>1</title>
<polygon fill="none" stroke="#000000" points="112.3044,-161.4014 .2312,-161.4014 .2312,-102.5986 112.3044,-102.5986 112.3044,-161.4014"/>
<text text-anchor="middle" x="56.2678" y="-144.6" font-family="Times,serif" font-size="14.00" fill="#000000">gini = 0.0</text>
<text text-anchor="middle" x="56.2678" y="-127.8" font-family="Times,serif" font-size="14.00" fill="#000000">samples = 50</text>
<text text-anchor="middle" x="56.2678" y="-111" font-family="Times,serif" font-size="14.00" fill="#000000">value = [50, 0, 0]</text>
</g>
<!-- 0&#45;&gt;1 -->
<g id="edge1" class="edge">
<title>0-&gt;1</title>
<path fill="none" stroke="#000000" d="M105.2148,-205.5528C97.5967,-194.105 89.2217,-181.5199 81.5862,-170.046"/>
<polygon fill="#000000" stroke="#000000" points="84.3702,-167.9119 75.9163,-161.5258 78.5426,-171.79 84.3702,-167.9119"/>
<text text-anchor="middle" x="70.993" y="-181.8363" font-family="Times,serif" font-size="14.00" fill="#000000">True</text>
</g>
<!-- 2 -->
<g id="node3" class="node">
<title>2</title>
<polygon fill="none" stroke="#000000" points="277.2738,-169.7003 131.2618,-169.7003 131.2618,-94.2997 277.2738,-94.2997 277.2738,-169.7003"/>
<text text-anchor="middle" x="204.2678" y="-153" font-family="Times,serif" font-size="14.00" fill="#000000">PetalWidthCm &lt;= 1.75</text>
<text text-anchor="middle" x="204.2678" y="-136.2" font-family="Times,serif" font-size="14.00" fill="#000000">gini = 0.5</text>
<text text-anchor="middle" x="204.2678" y="-119.4" font-family="Times,serif" font-size="14.00" fill="#000000">samples = 100</text>
<text text-anchor="middle" x="204.2678" y="-102.6" font-family="Times,serif" font-size="14.00" fill="#000000">value = [0, 50, 50]</text>
</g>
<!-- 0&#45;&gt;2 -->
<g id="edge2" class="edge">
<title>0-&gt;2</title>
<path fill="none" stroke="#000000" d="M155.3208,-205.5528C161.1674,-196.7671 167.4598,-187.3115 173.5215,-178.2025"/>
<polygon fill="#000000" stroke="#000000" points="176.6142,-179.8726 179.2406,-169.6085 170.7866,-175.9946 176.6142,-179.8726"/>
<text text-anchor="middle" x="184.1638" y="-189.9189" font-family="Times,serif" font-size="14.00" fill="#000000">False</text>
</g>
<!-- 3 -->
<g id="node4" class="node">
<title>3</title>
<polygon fill="none" stroke="#000000" points="194.3044,-58.6014 82.2312,-58.6014 82.2312,.2014 194.3044,.2014 194.3044,-58.6014"/>
<text text-anchor="middle" x="138.2678" y="-41.8" font-family="Times,serif" font-size="14.00" fill="#000000">gini = 0.168</text>
<text text-anchor="middle" x="138.2678" y="-25" font-family="Times,serif" font-size="14.00" fill="#000000">samples = 54</text>
<text text-anchor="middle" x="138.2678" y="-8.2" font-family="Times,serif" font-size="14.00" fill="#000000">value = [0, 49, 5]</text>
</g>
<!-- 2&#45;&gt;3 -->
<g id="edge3" class="edge">
<title>2-&gt;3</title>
<path fill="none" stroke="#000000" d="M180.0666,-94.3048C174.3826,-85.4515 168.3228,-76.013 162.6317,-67.1487"/>
<polygon fill="#000000" stroke="#000000" points="165.4389,-65.0427 157.091,-58.5186 159.5485,-68.8246 165.4389,-65.0427"/>
</g>
<!-- 4 -->
<g id="node5" class="node">
<title>4</title>
<polygon fill="none" stroke="#000000" points="325.3044,-58.6014 213.2312,-58.6014 213.2312,.2014 325.3044,.2014 325.3044,-58.6014"/>
<text text-anchor="middle" x="269.2678" y="-41.8" font-family="Times,serif" font-size="14.00" fill="#000000">gini = 0.043</text>
<text text-anchor="middle" x="269.2678" y="-25" font-family="Times,serif" font-size="14.00" fill="#000000">samples = 46</text>
<text text-anchor="middle" x="269.2678" y="-8.2" font-family="Times,serif" font-size="14.00" fill="#000000">value = [0, 1, 45]</text>
</g>
<!-- 2&#45;&gt;4 -->
<g id="edge4" class="edge">
<title>2-&gt;4</title>
<path fill="none" stroke="#000000" d="M228.1023,-94.3048C233.7002,-85.4515 239.6681,-76.013 245.273,-67.1487"/>
<polygon fill="#000000" stroke="#000000" points="248.3437,-68.8413 250.7298,-58.5186 242.4272,-65.1003 248.3437,-68.8413"/>
</g>
</g>
</svg>